<?xml version="1.0" standalone="no"?>
<!DOCTYPE svg PUBLIC "-//W3C//DTD SVG 20010904//EN"
 "http://www.w3.org/TR/2001/REC-SVG-20010904/DTD/svg10.dtd">
<svg version="1.0" xmlns="http://www.w3.org/2000/svg"
 width="500.000000pt" height="500.000000pt" viewBox="0 0 500.000000 500.000000"
 preserveAspectRatio="xMidYMid meet">
<metadata>
Created by potrace 1.11, written by Peter Selinger 2001-2013
</metadata>
<g transform="translate(0.000000,500.000000) scale(0.100000,-0.100000)"
fill="#000000" stroke="none">
<path d="M2505 4900 c-3 -5 -2 -10 4 -10 5 0 13 5 16 10 3 6 2 10 -4 10 -5 0
-13 -4 -16 -10z"/>
<path d="M2635 4880 c3 -5 8 -10 11 -10 2 0 4 5 4 10 0 6 -5 10 -11 10 -5 0
-7 -4 -4 -10z"/>
<path d="M2540 4865 c-7 -8 -11 -15 -9 -16 34 -7 36 -6 32 12 -6 23 -7 23 -23
4z"/>
<path d="M2685 4833 c-38 -2 -74 -9 -80 -15 -7 -8 -5 -9 8 -5 14 6 17 3 12
-12 -4 -12 7 -34 35 -67 22 -27 40 -54 40 -60 0 -6 10 -9 24 -7 22 5 86 -21
86 -34 0 -3 -12 -22 -26 -41 -21 -27 -24 -36 -13 -42 20 -13 -6 -64 -30 -57
-21 5 -36 -15 -68 -93 -13 -30 -27 -56 -33 -58 -5 -2 -10 -10 -10 -18 0 -8 -7
-14 -15 -14 -8 0 -15 -9 -15 -20 0 -11 -4 -20 -9 -20 -15 0 -122 -110 -119
-123 1 -7 -3 -22 -10 -34 -7 -12 -12 -26 -11 -30 4 -21 -4 -31 -36 -49 -19
-10 -38 -27 -41 -37 -7 -23 -84 -104 -84 -89 0 7 -5 12 -11 12 -8 0 -7 -6 2
-16 11 -14 10 -19 -7 -33 -12 -9 -29 -33 -38 -53 -12 -24 -23 -35 -32 -31 -10
4 -12 0 -8 -11 4 -12 0 -16 -15 -16 -12 0 -21 -4 -21 -8 0 -14 -33 -48 -60
-62 -14 -7 -43 -28 -66 -47 -23 -18 -45 -33 -49 -33 -4 0 -13 -7 -19 -15 -6
-8 -22 -17 -35 -20 -13 -2 -32 -12 -42 -21 -10 -9 -23 -13 -30 -9 -8 6 -10 -1
-7 -22 4 -30 -14 -59 -31 -49 -5 3 -33 -19 -64 -48 -30 -30 -71 -60 -90 -67
-19 -7 -33 -18 -31 -24 7 -18 -69 -37 -100 -25 -21 8 -26 7 -26 -6 0 -13 -3
-14 -13 -5 -10 8 -20 2 -43 -29 -16 -21 -41 -42 -55 -45 -14 -3 -40 -19 -58
-35 -18 -17 -40 -30 -50 -30 -10 0 -26 -9 -36 -20 -9 -10 -25 -19 -34 -18 -22
2 -81 -22 -81 -33 0 -5 -9 -9 -20 -9 -11 0 -29 -9 -40 -20 -11 -11 -29 -20
-40 -20 -10 0 -45 -10 -77 -22 -32 -12 -64 -23 -72 -24 -39 -7 -61 -15 -61
-23 0 -5 -7 -17 -16 -25 -8 -9 -11 -16 -6 -16 5 0 9 -7 9 -15 0 -8 -6 -15 -14
-15 -7 0 -13 5 -13 10 0 14 -43 7 -172 -27 -65 -17 -108 -33 -108 -40 0 -17
-20 -17 -20 0 0 7 -7 4 -15 -7 -11 -14 -15 -16 -15 -5 0 12 -2 12 -10 -1 -5
-9 -22 -13 -44 -12 -28 2 -34 -1 -30 -13 3 -8 2 -16 -2 -16 -5 -1 -19 -3 -30
-4 -12 -1 -26 -5 -32 -9 -11 -7 -22 15 -22 47 0 17 -3 18 -12 9 -7 -7 -13 -18
-14 -25 0 -7 -2 -20 -2 -29 -1 -10 -9 -18 -17 -18 -8 0 -15 -8 -15 -17 -1 -29
-32 36 -45 92 -14 66 -9 106 16 112 11 3 19 14 20 27 0 11 2 30 4 41 2 10 -2
44 -9 75 -14 60 -8 101 20 131 22 25 46 24 69 -1 18 -20 18 -22 -5 -68 -30
-57 -35 -72 -20 -52 9 12 11 8 7 -18 -6 -50 6 -27 48 88 20 58 52 133 71 167
33 60 43 103 25 103 -5 0 -13 -9 -16 -20 -8 -25 -29 -15 -22 11 3 11 1 19 -5
19 -15 0 0 87 24 138 11 23 26 42 34 42 17 0 18 -11 2 -30 -7 -8 4 1 24 19 23
21 38 44 38 58 0 23 -1 23 -24 8 l-25 -16 15 63 c8 34 22 73 30 86 9 13 13 26
10 29 -9 9 -44 -31 -51 -59 -4 -15 -13 -32 -21 -39 -8 -6 -14 -18 -14 -26 0
-8 -23 -39 -52 -69 -29 -30 -53 -62 -54 -71 -2 -9 -8 -19 -14 -23 -9 -6 -9 -9
-1 -15 7 -4 18 -1 26 5 13 10 15 8 15 -11 -1 -13 -7 -42 -15 -64 -8 -22 -15
-48 -15 -59 0 -12 -5 -16 -15 -12 -11 4 -15 -1 -15 -18 0 -23 -40 -53 -57 -43
-5 3 -26 -26 -46 -66 -29 -55 -38 -88 -43 -142 -3 -38 -12 -97 -20 -130 -8
-34 -16 -90 -18 -126 -2 -35 -11 -79 -20 -96 -20 -40 -20 -54 0 -28 15 19 15
19 9 -10 -4 -16 -12 -46 -18 -65 l-11 -35 -7 30 c-6 29 -7 29 -8 -7 0 -21 3
-38 7 -38 5 0 10 -29 11 -64 1 -48 -2 -67 -13 -73 -11 -6 -16 -29 -18 -83 -1
-41 1 -80 5 -87 4 -6 3 -14 -2 -18 -6 -3 -13 -25 -17 -50 -5 -38 3 -91 32
-207 1 -5 2 -21 3 -37 1 -19 6 -28 16 -27 10 1 23 -20 38 -64 30 -84 45 -110
61 -110 8 0 18 -12 24 -27 17 -45 43 -184 35 -196 -4 -6 -1 -7 7 -2 9 5 10 2
6 -12 -9 -30 7 -65 73 -156 32 -45 62 -93 66 -107 4 -14 13 -32 20 -40 7 -8
16 -26 20 -39 4 -14 18 -36 31 -50 24 -26 32 -51 15 -51 -5 0 -15 10 -24 22
-15 23 -15 22 -12 -10 3 -36 15 -55 22 -34 4 10 8 10 19 1 11 -9 15 -8 20 5 5
12 10 13 25 5 10 -5 19 -16 19 -24 0 -7 11 -27 25 -43 14 -17 25 -36 25 -43 1
-17 107 -99 127 -99 22 0 91 -78 82 -92 -10 -16 8 -28 42 -28 14 0 30 -5 37
-12 16 -16 15 -58 0 -58 -7 0 21 -16 62 -35 41 -19 75 -40 75 -46 0 -7 14 -17
31 -23 16 -6 57 -38 90 -71 70 -72 431 -293 436 -268 2 11 8 9 26 -7 13 -12
35 -25 50 -29 15 -4 27 -13 27 -21 0 -15 129 -69 168 -70 16 0 26 -4 22 -10
-3 -5 3 -10 14 -10 12 0 21 -5 21 -11 0 -5 -5 -7 -12 -3 -6 4 -8 3 -4 -4 8
-14 67 -4 88 15 10 9 20 24 23 34 6 17 8 17 35 1 24 -14 34 -15 59 -5 32 12
56 -2 30 -17 -9 -6 -6 -10 12 -15 51 -12 127 -21 150 -18 13 3 72 4 131 4 80
-1 107 3 111 13 4 10 21 12 64 9 32 -2 100 -5 151 -6 88 -2 92 -1 92 19 0 28
17 34 71 23 24 -4 61 -8 83 -9 31 0 37 3 32 16 -7 18 -12 19 96 -23 37 -14 65
-30 62 -35 -4 -5 4 -8 17 -6 17 2 25 11 29 32 6 36 29 46 37 17 9 -34 49 -25
130 29 41 28 85 53 98 56 14 3 25 15 27 27 3 22 41 40 108 52 46 8 74 21 94
44 11 11 23 21 28 21 10 0 69 51 106 93 17 18 35 27 55 27 23 0 47 17 113 81
61 61 88 80 103 76 13 -3 33 9 67 44 26 26 51 46 55 43 13 -7 69 69 80 109 6
22 14 35 20 31 14 -8 86 62 109 106 9 19 21 50 25 67 4 22 13 33 24 33 27 0
142 143 193 239 25 49 72 131 102 182 68 111 83 159 65 202 -7 17 -12 49 -11
71 2 37 1 39 -11 24 -18 -23 -22 -23 -42 8 -15 23 -15 27 0 50 17 26 41 33 31
9 -7 -18 8 -20 22 -2 6 7 20 38 32 70 12 31 25 57 30 57 4 0 11 24 15 53 4 28
8 59 10 67 4 19 23 143 30 195 8 62 17 405 10 405 -4 0 -15 -4 -25 -10 -15 -8
-18 -5 -22 25 -5 42 7 68 21 45 6 -8 12 -12 16 -9 3 3 -6 23 -20 43 -14 20
-25 47 -25 59 1 21 2 21 25 -6 36 -40 31 -13 -5 32 -33 41 -51 108 -32 120 8
5 9 18 3 41 -5 19 -12 48 -16 65 -6 26 -8 27 -16 12 -14 -24 -26 -21 -33 8 -4
14 -11 23 -16 20 -6 -4 -10 7 -10 23 0 75 -110 336 -169 402 -18 19 -44 54
-58 78 -15 26 -29 39 -33 32 -8 -13 -36 -4 -44 15 -2 7 2 16 10 19 21 8 17 29
-16 94 -16 33 -30 63 -31 68 0 5 -26 31 -56 58 -43 37 -58 45 -64 35 -12 -19
-11 -2 0 20 8 14 -3 30 -56 82 -35 35 -92 95 -126 133 -34 37 -82 84 -106 102
-38 29 -46 32 -53 19 -15 -26 -27 -17 -49 36 -21 47 -24 50 -50 45 -18 -3 -34
0 -43 9 -8 8 -16 10 -18 5 -2 -6 -30 10 -63 35 -99 75 -264 149 -515 233 -129
44 -258 89 -287 100 -34 14 -54 18 -59 11 -3 -6 -12 -8 -20 -5 -9 3 -14 -2
-14 -14 0 -25 2 -25 -66 5 -31 14 -62 24 -68 23 -6 -1 -42 -4 -81 -5z m166
-216 c15 4 18 2 13 -13 -3 -11 -2 -15 3 -8 10 13 91 25 98 15 2 -4 14 -7 27
-6 13 1 35 -4 49 -11 14 -7 48 -18 75 -25 27 -6 106 -40 177 -75 70 -36 127
-59 127 -53 0 6 7 8 17 5 15 -6 15 -4 -2 14 -10 11 -13 20 -7 20 6 0 16 -9 22
-20 6 -11 8 -20 4 -20 -3 0 -1 -7 6 -15 9 -10 16 -12 20 -5 4 6 26 0 61 -18
74 -38 115 -69 128 -99 9 -20 14 -23 25 -14 20 16 80 -18 84 -48 3 -20 1 -21
-18 -11 -17 9 -21 9 -15 0 12 -19 97 -70 107 -64 14 9 107 -64 258 -202 76
-70 107 -94 114 -87 10 10 56 -38 78 -81 11 -22 42 -63 69 -91 45 -47 48 -54
40 -82 -8 -27 -5 -35 17 -56 15 -14 39 -29 54 -32 32 -8 53 -30 43 -45 -3 -5
-2 -10 3 -10 5 0 21 -12 35 -26 24 -24 25 -27 10 -44 -9 -11 -21 -16 -26 -13
-21 13 5 -64 43 -127 29 -48 37 -72 33 -92 -4 -21 -1 -28 11 -28 18 0 21 26 6
65 -24 63 17 49 50 -16 19 -37 19 -38 0 -95 -11 -31 -20 -73 -20 -92 0 -53 52
-202 70 -202 12 0 12 -2 1 38 -13 43 -7 40 23 -11 28 -47 44 -117 27 -117 -6
0 -11 4 -11 8 0 5 -7 17 -15 28 -13 17 -13 15 -4 -20 7 -24 7 -42 1 -48 -10
-10 -27 25 -38 82 -3 19 -13 46 -21 60 l-14 25 6 -30 c3 -16 7 -37 9 -45 1 -8
7 -31 14 -50 6 -19 10 -48 10 -65 -1 -16 2 -38 7 -47 4 -11 3 -18 -4 -18 -7 0
-7 -8 0 -26 8 -24 8 -25 -6 -14 -13 11 -15 8 -15 -16 0 -16 -3 -39 -6 -51 -5
-19 -3 -21 20 -17 18 3 26 0 27 -11 1 -8 2 -21 3 -27 3 -17 -12 -47 -36 -72
-21 -22 -38 -58 -38 -79 0 -7 4 -6 10 3 20 31 21 -1 1 -45 -24 -54 -29 -97 -9
-77 18 18 30 14 19 -5 -6 -11 -6 -24 0 -35 6 -10 7 -23 4 -28 -3 -6 -1 -10 4
-10 6 0 11 -4 11 -8 0 -5 -7 -9 -15 -9 -9 0 -15 10 -15 24 0 13 -5 23 -10 23
-6 0 -9 -3 -9 -7 3 -21 -2 -33 -13 -27 -7 5 -8 3 -4 -5 5 -7 0 -19 -10 -27
-14 -11 -15 -17 -6 -20 26 -12 3 -70 -28 -69 -20 1 -43 -30 -64 -88 -10 -26
-24 -53 -31 -61 -8 -7 -11 -16 -8 -20 6 -6 -12 -10 -30 -7 -4 0 -6 -2 -5 -6 4
-14 -13 -53 -21 -49 -11 7 -112 -103 -109 -117 1 -7 -3 -22 -10 -35 -7 -12
-11 -26 -8 -31 6 -10 -50 -62 -58 -54 -2 3 -14 -10 -25 -28 -29 -50 -72 -88
-90 -81 -14 5 -14 4 -1 -12 12 -16 12 -20 -7 -34 -11 -10 -28 -32 -37 -49 -9
-18 -21 -33 -26 -33 -6 0 -10 -7 -10 -15 0 -9 -7 -15 -16 -13 -9 2 -21 -6 -28
-17 -15 -27 -33 -45 -44 -45 -4 0 -35 -20 -68 -45 -32 -25 -64 -48 -69 -52
-25 -18 -110 -58 -118 -55 -5 2 -7 -9 -4 -24 5 -29 -15 -60 -33 -49 -5 3 -26
-10 -47 -30 -20 -19 -41 -35 -45 -35 -4 0 -8 -6 -8 -14 0 -7 -20 -21 -44 -30
-31 -12 -43 -22 -39 -32 3 -10 -2 -14 -19 -14 -13 0 -28 -4 -34 -10 -6 -6 -21
-6 -42 -1 -27 8 -32 7 -32 -7 0 -15 -2 -15 -10 -2 -9 13 -14 11 -33 -13 -13
-15 -28 -27 -35 -27 -6 0 -9 -6 -6 -14 3 -9 -5 -15 -24 -19 -16 -3 -44 -18
-62 -34 -18 -15 -39 -28 -47 -29 -8 -2 -23 -10 -32 -18 -10 -9 -25 -16 -33
-16 -24 0 -88 -29 -88 -40 0 -6 -11 -10 -23 -10 -13 0 -32 -9 -42 -20 -10 -11
-28 -20 -39 -20 -12 0 -52 -11 -91 -25 -38 -13 -77 -25 -86 -25 -20 0 -63 -57
-47 -62 13 -5 2 -28 -13 -28 -6 0 -7 5 -3 11 5 9 -7 10 -42 6 -50 -6 -229 -53
-248 -65 -6 -4 -18 -7 -26 -7 -8 0 -21 -4 -27 -8 -24 -15 -103 -20 -118 -7
-12 10 -15 9 -15 -4 0 -10 -19 -25 -47 -38 -27 -13 -50 -24 -52 -25 -3 -2 4
-10 15 -18 10 -8 15 -15 9 -16 -46 -5 -77 -4 -87 3 -10 6 -10 8 0 8 10 0 10 4
0 20 -10 15 -10 22 -1 31 16 16 47 3 39 -16 -3 -8 -3 -15 -1 -15 9 0 53 47 65
70 12 23 12 24 -3 11 -13 -10 -17 -10 -17 -1 0 7 -7 10 -15 6 -10 -4 -19 2
-25 17 -5 12 -9 18 -9 14 -1 -5 -24 4 -51 19 -49 27 -52 27 -118 14 -70 -13
-210 -21 -242 -13 -17 5 -17 7 -2 36 10 18 18 33 19 35 1 2 10 -1 20 -7 28
-14 133 -23 133 -11 0 6 -4 11 -10 11 -5 1 -14 3 -20 4 -5 1 -28 3 -50 4 -25
1 -40 6 -40 14 0 17 -43 43 -48 28 -5 -15 -30 -14 -88 5 -65 22 -80 37 -32 32
20 -2 34 0 31 5 -3 5 -27 7 -54 5 -41 -2 -56 2 -93 27 -47 31 -61 56 -43 74 7
7 15 7 24 -1 10 -8 20 -8 38 0 13 6 53 19 87 27 35 9 70 23 78 30 14 12 55 23
113 29 15 2 32 4 37 5 6 0 10 7 10 15 0 17 42 29 51 14 5 -8 20 -7 56 5 29 9
39 16 26 16 -13 1 -23 5 -23 10 0 15 31 21 52 10 11 -6 34 -8 52 -5 17 3 41 7
54 10 12 2 26 7 30 11 4 5 -1 5 -10 2 -10 -4 -18 -2 -18 4 0 6 -6 7 -12 3 -7
-4 -5 2 6 12 13 14 20 15 23 6 3 -6 9 -10 14 -6 5 3 9 2 9 -3 0 -7 16 -8 77
-4 7 1 10 8 7 16 -7 18 18 20 46 5 13 -7 21 -7 25 0 3 5 16 10 27 10 12 0 19
3 15 6 -9 9 19 34 37 34 9 0 16 7 16 15 0 8 5 15 11 15 5 0 7 -5 3 -11 -13
-21 50 1 67 23 11 14 18 17 23 9 4 -6 2 -11 -3 -11 -6 0 -11 -4 -11 -10 0 -14
33 1 49 23 9 13 17 15 24 8 7 -7 16 -7 29 0 10 5 22 7 27 4 5 -3 30 8 54 25
25 16 51 30 59 30 8 0 23 6 33 14 11 8 25 12 31 9 7 -2 11 3 11 14 -2 12 4 17
18 16 11 -1 23 5 28 12 4 8 14 12 22 9 8 -4 12 -11 8 -16 -3 -6 14 4 39 23 25
19 49 43 54 53 5 11 20 20 32 21 13 1 37 16 53 33 33 35 41 40 33 17 -9 -22
12 -18 28 4 14 19 61 37 86 33 6 -2 12 5 12 14 0 13 6 15 27 9 23 -5 25 -4 14
9 -8 9 -9 16 -3 16 5 0 20 11 33 25 13 13 29 25 35 25 7 0 15 11 18 24 4 18
15 25 45 30 29 4 41 12 47 29 4 12 12 25 18 29 6 4 11 22 11 40 0 18 5 33 10
33 6 0 9 -10 7 -22 -2 -18 2 -23 18 -23 36 0 59 19 70 58 15 54 26 70 41 55
10 -10 9 -16 -4 -31 -9 -10 -17 -23 -17 -28 0 -5 6 -2 13 7 7 8 21 18 31 22
10 4 16 10 12 14 -10 10 45 63 81 78 18 8 41 28 51 44 10 17 22 28 27 23 4 -4
5 12 2 36 -6 46 -2 50 25 25 22 -19 24 -35 4 -27 -11 4 -13 0 -9 -14 5 -20 5
-20 24 -1 22 22 24 35 7 42 -7 3 -1 6 14 6 22 1 25 4 20 24 -5 20 -4 21 11 8
15 -12 17 -12 11 3 -5 14 -2 17 12 15 32 -6 44 10 44 58 0 44 1 45 18 30 27
-24 32 -12 16 40 -10 33 -11 50 -3 65 16 30 19 25 32 -72 8 -50 68 -25 66 27
0 15 -2 14 -11 -5 -16 -33 -32 -27 -24 10 8 40 12 44 30 29 11 -9 15 -8 20 4
3 9 10 13 16 10 5 -3 10 1 10 10 0 8 9 19 21 23 19 8 18 10 -20 35 -23 15 -41
31 -41 36 0 5 14 14 30 20 28 9 32 8 42 -14 9 -20 13 -22 24 -10 8 7 14 20 14
28 0 9 6 17 13 20 10 4 10 7 0 18 -15 15 -17 49 -4 49 5 0 26 18 48 40 27 26
37 43 32 52 -16 24 -9 67 12 87 14 13 20 27 16 41 -7 28 20 55 39 39 10 -9 12
-15 4 -23 -5 -5 -10 -17 -10 -25 0 -8 13 6 29 31 16 25 34 49 40 52 6 4 9 12
5 17 -3 5 -10 7 -15 4 -5 -4 -9 -3 -10 2 0 4 -2 16 -4 27 -4 23 4 46 17 46 5
0 6 -6 3 -12 -4 -7 1 -4 10 7 15 18 15 20 0 23 -12 3 -15 12 -11 33 6 38 0 37
-19 -3 -8 -18 -22 -43 -31 -56 -15 -19 -15 -22 -1 -16 12 4 14 1 9 -18 -7 -27
-30 -53 -39 -44 -7 7 -43 -23 -43 -36 0 -19 -50 -118 -60 -118 -5 0 -9 -6 -8
-12 2 -7 -3 -12 -9 -10 -7 1 -13 -4 -13 -11 0 -15 -66 -87 -79 -87 -12 0 -51
-58 -51 -77 0 -10 -7 -26 -15 -36 -7 -11 -11 -25 -9 -31 3 -7 -13 -25 -36 -40
-22 -14 -40 -30 -40 -36 0 -5 -19 -29 -43 -53 -24 -24 -42 -48 -40 -54 2 -6
-5 -14 -16 -18 -11 -3 -26 -22 -33 -40 -6 -19 -20 -37 -30 -41 -10 -3 -18 -12
-18 -21 0 -9 -6 -13 -14 -10 -9 4 -17 -1 -21 -12 -3 -10 -16 -26 -28 -35 -137
-99 -192 -136 -204 -136 -7 0 -21 -8 -30 -17 -10 -10 -25 -18 -33 -18 -10 0
-14 -8 -12 -23 4 -24 -17 -51 -34 -45 -6 2 -36 -21 -66 -52 -31 -30 -62 -55
-69 -55 -17 -1 -51 -25 -49 -37 0 -4 -11 -9 -25 -11 -14 -2 -25 -8 -25 -13 0
-6 -10 -8 -22 -4 -59 17 -58 17 -51 -2 6 -15 4 -16 -9 -5 -13 11 -20 8 -44
-16 -16 -16 -29 -32 -29 -37 0 -5 -13 -12 -30 -17 -16 -4 -44 -21 -61 -37 -18
-17 -34 -27 -37 -24 -3 3 -21 -5 -39 -18 -18 -13 -40 -23 -49 -21 -8 1 -32 -9
-53 -23 -20 -14 -43 -25 -51 -25 -7 0 -21 -8 -31 -18 -10 -9 -20 -17 -23 -18
-38 -4 -92 -18 -97 -25 -3 -5 -9 -7 -14 -4 -5 3 -11 1 -15 -4 -3 -6 -26 -13
-51 -17 -36 -5 -48 -12 -56 -33 -6 -14 -10 -34 -9 -43 1 -10 -3 -18 -8 -18 -6
0 -11 6 -11 14 0 16 -33 11 -184 -28 -54 -14 -100 -26 -102 -26 -2 0 -3 -3 -3
-8 3 -19 -2 -23 -16 -12 -10 9 -15 9 -15 1 0 -6 -5 -11 -11 -11 -5 0 -7 6 -4
12 4 7 0 5 -8 -5 -9 -10 -28 -17 -50 -17 -28 0 -35 -3 -31 -15 4 -9 0 -15 -7
-16 -59 -3 -189 -49 -189 -66 0 -12 -3 -13 -13 -5 -16 14 -68 19 -85 8 -17
-10 -48 -16 -112 -22 -30 -3 -60 -12 -65 -19 -7 -9 -16 -10 -27 -4 -11 6 -20
4 -28 -6 -7 -8 -23 -15 -35 -15 -13 0 -45 -5 -72 -11 -43 -9 -54 -8 -108 14
-45 19 -56 27 -43 32 40 16 12 21 -98 17 l-116 -4 32 44 c33 45 48 57 80 63
28 5 33 -9 16 -50 -13 -31 -7 -50 8 -26 3 5 23 12 43 16 36 7 37 8 14 16 -14
6 -40 28 -59 49 -18 22 -43 45 -55 51 -12 7 -19 8 -15 4 4 -4 0 -22 -9 -39
l-17 -31 -12 50 c-18 78 -23 86 -44 75 -24 -13 -60 -13 -60 -1 0 5 11 18 25
29 l25 20 -37 7 c-52 9 -54 12 -38 42 13 24 11 30 -17 69 -17 23 -36 40 -43
38 -6 -3 -17 1 -23 9 -10 12 -8 14 13 12 14 -2 25 1 25 7 0 6 7 8 15 4 8 -3
15 -1 15 5 0 7 17 10 45 7 25 -2 45 0 45 4 0 5 9 8 21 8 11 0 17 -4 14 -10 -9
-14 -3 -13 46 10 24 11 53 20 65 20 11 0 42 11 70 24 51 25 90 36 137 39 15 1
31 7 35 12 4 6 15 16 24 23 15 12 20 12 34 -2 14 -15 19 -15 38 -3 12 8 31 17
41 20 16 4 15 5 -5 6 -23 2 -24 3 -7 15 15 12 22 12 46 0 23 -11 35 -12 57 -3
16 6 38 12 49 14 11 1 32 7 48 13 15 7 36 11 47 9 10 -1 19 2 19 7 -1 16 24
24 48 15 32 -12 52 -11 33 1 -12 8 -9 10 13 10 16 0 26 4 23 9 -5 8 16 23 36
25 4 1 14 10 23 21 13 15 15 16 12 3 -3 -9 -1 -15 6 -13 41 10 57 19 57 31 0
8 7 14 15 14 18 0 20 -16 3 -23 -8 -4 -7 -6 4 -6 9 -1 25 9 35 21 19 23 43 34
43 20 0 -14 48 -6 77 13 15 11 31 18 36 17 4 -1 7 2 7 8 0 5 6 10 13 10 6 0
25 7 41 15 16 9 36 13 43 10 11 -3 13 1 8 17 -6 18 -4 20 14 15 14 -3 26 1 36
16 11 16 17 18 29 8 11 -10 19 -9 35 1 12 7 21 18 21 25 0 7 6 10 14 7 8 -3
16 3 19 15 3 11 22 27 43 36 22 9 49 28 61 43 20 25 22 25 16 5 -3 -13 -2 -23
2 -23 4 0 17 10 28 23 15 16 18 17 14 5 -5 -14 -1 -18 15 -18 17 0 19 2 7 16
-10 13 -10 17 2 25 8 5 24 8 37 6 17 -3 22 1 22 15 0 17 5 19 28 14 16 -4 22
-3 14 2 -11 8 12 31 68 67 8 6 15 16 15 24 0 8 18 20 41 28 24 8 46 24 54 38
7 14 17 25 21 25 4 0 6 16 5 36 -2 39 9 53 27 35 8 -8 8 -11 -1 -11 -7 0 -12
-9 -12 -20 0 -16 5 -19 23 -16 44 8 56 18 68 54 20 63 29 75 44 62 12 -10 11
-15 -5 -33 -11 -11 -17 -23 -14 -26 3 -3 10 2 15 12 6 9 17 17 24 17 8 0 14 3
13 8 -3 15 15 42 29 42 8 0 12 4 9 8 -3 5 7 15 22 22 15 8 44 30 65 49 30 29
37 42 37 73 0 36 1 37 20 26 11 -7 20 -21 20 -32 0 -16 2 -17 16 -5 10 8 12
15 5 17 -19 6 -12 22 10 22 16 0 19 4 14 23 -5 17 -4 19 4 7 7 -10 11 -11 11
-2 0 6 8 12 18 12 28 0 42 21 42 62 0 36 12 49 25 28 16 -26 21 -5 10 43 -10
44 -10 57 1 72 16 22 22 11 27 -52 4 -52 9 -57 42 -49 18 5 25 13 25 32 0 32
18 66 31 59 5 -4 9 3 9 14 0 14 9 23 27 27 l26 7 -35 18 c-51 26 -64 45 -39
58 29 16 41 14 61 -11 18 -23 19 -23 25 -3 4 11 11 28 16 38 6 11 6 24 -1 37
-14 26 -13 40 3 40 7 0 27 16 44 35 17 19 36 35 42 35 6 0 4 11 -5 28 -19 36
-18 45 7 73 11 13 18 32 15 42 -7 27 3 47 24 47 27 0 36 -21 16 -36 -9 -6 -13
-15 -8 -18 5 -3 26 19 46 49 34 51 37 59 20 53 -4 -2 -11 7 -15 20 -10 26 5
63 23 59 6 -1 13 4 16 12 3 8 0 11 -7 7 -11 -7 -14 1 -13 44 0 24 -1 23 -13
-6 -8 -17 -21 -36 -29 -43 -12 -10 -14 -23 -10 -52 6 -38 5 -40 -28 -43 -19
-1 -45 -30 -53 -58 -12 -43 -38 -93 -52 -101 -7 -5 -11 -12 -8 -18 4 -5 -1 -9
-9 -9 -9 0 -18 -11 -22 -25 -3 -14 -12 -25 -20 -25 -7 0 -18 -9 -24 -20 -6
-11 -16 -20 -23 -20 -22 0 -83 -122 -71 -142 3 -4 -15 -21 -38 -38 -24 -17
-49 -43 -57 -58 -18 -34 -61 -68 -80 -64 -12 3 -13 1 -2 -12 11 -13 10 -18 -3
-31 -9 -9 -16 -13 -17 -8 0 4 -10 -12 -23 -37 -12 -25 -28 -44 -35 -42 -9 2
-11 -3 -7 -14 5 -13 2 -15 -14 -11 -11 3 -20 1 -20 -5 0 -13 -40 -63 -48 -62
-7 2 -62 -34 -72 -46 -3 -3 -21 -17 -40 -30 -19 -13 -38 -28 -41 -32 -3 -5
-16 -10 -29 -13 -12 -2 -30 -11 -39 -18 -9 -8 -22 -12 -30 -9 -10 3 -13 -3 -9
-25 4 -31 -15 -59 -32 -48 -5 3 -33 -17 -61 -45 -28 -28 -68 -58 -89 -67 -21
-9 -36 -22 -34 -27 7 -18 -71 -37 -101 -26 -21 8 -25 7 -25 -8 0 -13 -2 -14
-9 -3 -7 10 -16 6 -42 -19 -19 -18 -33 -36 -32 -40 1 -4 -15 -12 -36 -18 -20
-7 -48 -23 -61 -37 -13 -14 -30 -25 -38 -25 -9 0 -23 -7 -32 -15 -10 -9 -29
-18 -44 -21 -41 -7 -76 -23 -76 -34 0 -5 -8 -10 -19 -10 -10 0 -30 -9 -44 -20
-13 -11 -42 -23 -63 -26 -22 -3 -51 -12 -65 -20 -15 -7 -45 -16 -68 -20 -29
-5 -47 -15 -61 -34 -11 -16 -16 -30 -10 -32 6 -2 6 -8 0 -18 -8 -12 -12 -12
-18 -2 -11 16 -47 11 -183 -25 -70 -19 -104 -32 -101 -41 2 -6 -4 -12 -13 -12
-10 0 -14 5 -10 13 4 6 0 4 -8 -5 -16 -21 -32 -24 -21 -5 4 6 -2 4 -13 -6 -12
-11 -27 -15 -38 -11 -12 5 -23 1 -31 -11 -8 -10 -21 -20 -30 -21 -80 -12 -155
-41 -177 -69 -6 -7 -10 -6 -14 3 -6 14 -57 16 -82 2 -10 -5 -53 -13 -96 -19
-43 -5 -81 -14 -85 -21 -4 -6 -14 -8 -22 -5 -8 3 -22 -1 -31 -9 -8 -8 -16 -13
-18 -11 -2 1 -40 -3 -84 -11 -51 -9 -81 -10 -83 -4 -2 6 -8 10 -13 10 -4 0 -6
-7 -3 -15 5 -11 -1 -15 -25 -15 -27 0 -30 2 -22 18 14 26 2 36 -44 41 -101 9
-230 72 -223 109 2 10 -7 27 -19 40 -13 13 -23 25 -23 27 0 6 73 -26 192 -84
l100 -48 -5 38 c-5 41 0 48 22 26 7 -6 3 12 -8 41 -12 29 -21 55 -21 57 0 3
-6 5 -13 5 -7 0 -30 16 -52 35 -21 20 -40 33 -43 30 -5 -5 10 -26 62 -82 34
-37 30 -48 -12 -38 -39 8 -107 67 -120 104 -13 36 -8 41 35 41 l35 0 -21 34
c-26 41 -26 47 -3 39 18 -7 14 0 -29 52 -19 23 -32 55 -21 53 4 -1 16 3 26 7
13 6 21 4 24 -3 5 -17 27 -15 42 3 7 8 22 15 33 15 29 0 127 32 127 41 0 5 17
11 37 15 21 4 45 10 54 15 9 4 20 4 26 -2 6 -6 21 2 43 21 31 27 36 29 46 15
11 -15 15 -15 49 -1 20 9 42 13 48 9 6 -4 7 -1 3 6 -5 7 -14 10 -22 7 -7 -3
-16 -1 -19 4 -9 14 40 23 62 12 22 -12 76 -7 81 8 2 5 8 10 13 10 6 0 7 -5 3
-11 -4 -8 0 -8 15 0 11 7 21 14 21 17 0 3 -4 2 -10 -1 -5 -3 -17 -2 -27 3 -15
9 -14 11 5 21 15 8 21 8 24 -1 3 -7 26 -13 56 -14 42 0 52 2 50 15 -3 17 3 18
40 6 13 -4 22 -2 22 4 0 6 8 10 18 8 9 -1 19 3 21 8 9 19 26 33 35 27 5 -3 15
3 22 13 9 13 17 15 26 8 14 -11 60 8 58 23 -1 5 7 11 17 13 15 3 15 1 4 -13
-11 -14 -11 -16 2 -16 9 0 20 6 24 14 10 16 53 40 53 29 0 -17 46 -6 87 20 23
14 53 29 67 33 15 3 29 10 32 16 3 5 15 6 27 2 19 -6 20 -5 9 9 -15 17 0 32
23 24 7 -3 21 3 30 13 18 20 41 18 29 -2 -4 -6 7 -3 25 8 17 10 31 24 31 31 0
7 6 10 14 7 10 -4 16 2 18 18 2 13 10 23 18 23 21 1 61 24 83 49 15 17 18 18
13 4 -8 -25 4 -22 42 11 18 16 43 28 55 27 12 -1 28 6 35 16 7 9 19 15 28 11
8 -3 14 -2 12 3 -3 11 44 59 66 67 9 4 16 15 16 25 0 14 10 22 33 27 17 4 35
7 39 6 4 0 15 13 23 29 9 17 19 30 23 30 10 0 9 54 -1 61 -15 10 7 19 23 9 11
-7 11 -11 1 -23 -15 -19 -2 -28 30 -22 27 5 59 39 59 64 0 9 7 27 16 40 12 17
19 20 25 10 4 -7 1 -21 -7 -33 -8 -11 -14 -25 -14 -30 0 -6 7 0 16 12 8 12 22
22 30 22 8 0 12 5 9 10 -7 12 64 82 76 75 9 -6 69 61 69 78 0 8 4 7 11 -3 7
-11 9 -2 5 32 -5 45 -4 47 15 35 10 -6 22 -20 25 -30 4 -14 9 -16 17 -8 7 7 6
15 -4 27 -12 15 -12 17 1 12 23 -8 50 10 50 33 0 11 5 17 10 14 6 -3 19 -4 29
0 14 4 18 15 17 48 0 42 3 45 36 32 17 -7 17 -4 3 35 -8 23 -15 50 -15 60 0
19 29 37 31 20 1 -6 3 -14 4 -20 1 -5 3 -25 4 -44 2 -57 55 -54 66 3 2 12 0
19 -6 16 -5 -4 -9 -13 -9 -21 0 -8 -4 -12 -10 -9 -15 9 -12 51 4 64 11 9 15 8
20 -5 6 -15 9 -14 26 6 11 13 20 26 20 30 0 4 10 12 23 17 l22 11 -25 10 c-14
6 -36 20 -49 30 l-23 19 32 13 c30 12 34 12 50 -10 18 -24 20 -23 47 27 7 14
8 25 2 28 -20 13 -7 40 40 86 27 27 45 51 40 54 -5 4 -9 24 -9 46 0 28 4 39
15 39 15 0 19 15 15 58 -2 25 25 41 42 24 12 -12 1 -55 -13 -47 -5 4 -9 4 -9
1 0 -3 4 -7 9 -10 9 -6 81 97 81 116 0 10 -2 10 -9 0 -6 -10 -10 -8 -14 10
-11 39 -8 48 21 60 23 9 24 12 8 16 -15 3 -17 10 -13 38 4 20 2 32 -4 29 -5
-4 -9 -12 -9 -19 0 -7 -11 -28 -25 -46 -14 -19 -21 -36 -15 -38 5 -2 10 -15
10 -28 0 -14 -4 -22 -10 -19 -5 3 -10 1 -10 -4 0 -6 -7 -11 -16 -11 -20 0 -54
-37 -54 -59 -1 -40 -75 -142 -145 -201 -37 -31 -77 -85 -68 -93 3 -4 0 -13 -7
-22 -7 -8 -13 -25 -14 -37 -1 -14 -16 -33 -43 -51 -24 -15 -43 -34 -43 -41 0
-20 -67 -79 -80 -71 -9 6 -9 2 -1 -12 8 -17 6 -22 -14 -33 -13 -7 -27 -25 -30
-41 -6 -26 -34 -61 -36 -43 0 5 -5 -2 -11 -16 -6 -15 -12 -20 -15 -12 -3 7
-13 0 -27 -20 -12 -18 -32 -38 -44 -44 -12 -6 -30 -18 -39 -26 -32 -28 -126
-90 -138 -92 -7 -1 -24 -9 -38 -19 -15 -9 -31 -17 -38 -17 -7 0 -9 -9 -5 -24
5 -22 -17 -56 -33 -48 -10 5 -90 -61 -96 -79 -3 -9 -23 -21 -45 -28 -30 -9
-40 -17 -40 -32 0 -11 -4 -18 -9 -14 -5 3 -21 0 -34 -6 -19 -9 -34 -9 -57 0
-28 9 -31 9 -26 -5 5 -12 2 -15 -11 -10 -11 5 -28 -6 -55 -34 -21 -22 -44 -40
-51 -40 -7 0 -28 -13 -47 -30 -19 -16 -41 -29 -49 -30 -8 0 -23 -8 -33 -17
-10 -9 -26 -17 -36 -18 -29 -3 -66 -17 -84 -32 -9 -8 -23 -16 -32 -17 -8 -1
-23 -10 -34 -19 -10 -9 -36 -19 -57 -23 -22 -3 -52 -12 -67 -20 -15 -8 -49
-19 -76 -25 -51 -10 -67 -29 -62 -71 1 -11 -6 -18 -15 -18 -9 0 -13 4 -10 10
9 15 -57 4 -175 -28 -64 -17 -104 -33 -102 -40 1 -7 -5 -12 -14 -12 -9 0 -12
5 -8 13 4 6 -2 3 -14 -7 -17 -14 -22 -16 -22 -5 -1 10 -4 8 -11 -4 -7 -12 -17
-16 -30 -12 -20 7 -52 -6 -49 -20 0 -5 -25 -15 -57 -21 -66 -14 -146 -48 -136
-57 3 -4 1 -7 -5 -7 -6 0 -13 4 -16 9 -9 14 -59 11 -84 -5 -13 -9 -22 -10 -22
-4 0 7 -6 8 -19 1 -10 -6 -42 -13 -71 -15 -30 -3 -57 -10 -60 -16 -4 -6 -15
-8 -24 -4 -11 4 -21 2 -26 -6 -4 -7 -24 -14 -45 -17 -20 -2 -53 -7 -73 -11
-33 -7 -37 -12 -34 -35 3 -27 -2 -29 -43 -29 -33 0 -35 3 -29 45 18 123 33
145 87 122 49 -20 66 -20 44 2 -15 16 -15 18 0 35 15 17 15 19 0 36 -10 10
-17 25 -17 33 0 12 -2 11 -10 -1 -8 -12 -10 -10 -11 10 -1 14 -1 37 0 52 1 21
-6 30 -32 43 -17 8 -43 31 -56 50 -22 33 -23 37 -7 53 9 11 16 36 16 58 0 22
4 65 9 95 6 30 12 70 14 89 3 19 8 43 12 53 8 19 31 23 37 6 2 -6 20 -2 48 10
35 16 40 21 21 21 -19 0 -21 3 -12 14 11 13 17 13 47 0 42 -18 38 -18 73 0 16
9 31 13 34 10 3 -3 20 1 38 9 19 7 46 13 61 12 21 -2 28 3 28 17 0 15 5 18 19
13 40 -12 61 -14 55 -4 -4 7 1 9 12 7 12 -2 23 5 30 17 5 11 18 19 27 17 10
-2 17 4 17 13 0 17 16 20 25 5 8 -13 55 9 55 27 0 7 10 13 23 13 21 -1 22 -1
3 -15 -12 -9 -15 -15 -7 -15 7 0 27 12 44 26 17 15 33 21 35 16 5 -16 62 -2
97 23 17 12 53 30 82 40 37 13 50 22 45 33 -4 11 1 14 20 10 17 -3 29 1 37 13
6 11 17 16 27 12 11 -4 12 -9 5 -16 -6 -6 -11 -14 -11 -19 0 -4 18 10 40 32
22 22 40 36 40 32 1 -4 8 5 16 21 8 15 23 27 34 27 11 0 34 14 52 30 31 30 44
38 33 21 -14 -23 15 -18 30 5 9 14 19 23 22 20 4 -3 12 -1 20 5 7 6 22 9 32 6
13 -3 21 1 24 15 4 15 11 18 26 13 16 -5 20 -3 15 9 -3 9 -1 16 5 16 6 0 21
11 33 25 11 13 25 22 29 19 5 -3 11 7 15 21 3 14 10 25 15 25 5 0 11 0 14 0
17 -1 65 33 70 50 3 11 10 20 15 20 4 0 10 14 12 30 3 17 1 30 -3 30 -5 0 -6
7 -3 15 5 13 8 12 22 -1 12 -13 13 -17 2 -24 -18 -11 -4 -30 20 -25 38 7 59
25 65 57 12 55 24 71 41 57 13 -10 12 -15 -7 -36 -13 -12 -17 -23 -10 -23 6 0
14 7 17 15 4 8 12 15 20 15 8 0 14 6 14 13 0 15 56 68 93 87 16 8 36 26 44 41
9 16 20 26 25 23 5 -3 5 13 2 36 -7 41 -6 42 15 29 12 -8 24 -22 27 -33 5 -15
8 -16 15 -5 4 8 3 19 -3 26 -8 10 -4 13 18 13 22 0 25 3 16 12 -17 17 -15 33
3 18 12 -10 15 -10 15 3 0 10 6 13 20 10 24 -6 40 27 33 70 -4 29 5 35 25 15
19 -19 25 -2 13 33 -15 43 -14 68 3 84 12 13 15 6 21 -46 7 -57 8 -60 33 -57
21 2 28 10 33 36 8 39 2 42 -12 5 -10 -26 -12 -27 -19 -8 -12 34 20 85 33 53
4 -10 8 -9 16 2 6 8 11 11 11 5 1 -5 5 1 11 13 5 13 18 26 29 29 17 5 13 10
-26 35 -48 30 -49 42 -2 53 21 5 29 2 38 -16 12 -21 13 -22 23 -3 7 10 12 23
12 27 0 4 6 12 14 16 9 6 10 11 2 15 -24 15 -8 52 40 93 27 23 44 45 39 48
-16 10 -12 82 5 89 9 3 15 19 15 41 0 38 22 57 42 37 8 -8 8 -16 -2 -27 -7 -8
-11 -18 -8 -21 3 -3 22 18 42 46 36 50 44 66 27 56 -9 -6 -21 25 -21 55 0 9 9
19 20 22 11 3 20 10 20 17 0 6 -4 8 -10 5 -6 -3 -10 4 -9 17 0 13 3 18 5 12 3
-7 14 -10 25 -7z m29 -1557 c0 -5 -2 -10 -4 -10 -3 0 -8 5 -11 10 -3 6 -1 10
4 10 6 0 11 -4 11 -10z m-2341 -299 c11 -7 9 -11 -8 -20 -27 -15 -47 -5 -30
15 13 16 19 17 38 5z m2970 -140 c-10 -29 -13 -31 -22 -16 -12 21 9 73 24 58
6 -6 5 -21 -2 -42z m1175 -585 c-3 -7 2 -20 10 -29 18 -18 22 -67 5 -67 -6 0
-8 9 -4 22 6 17 4 20 -9 15 -13 -5 -16 0 -16 27 0 18 3 36 7 39 10 11 13 8 7
-7z m-57 -150 c-15 -12 -15 -15 -3 -19 13 -5 13 -10 2 -32 -8 -15 -11 -36 -8
-48 5 -20 6 -20 12 -2 6 18 7 18 12 -1 6 -23 -4 -57 -16 -52 -4 2 -14 -8 -22
-22 -14 -24 -15 -23 -9 23 6 49 -5 63 -24 30 -10 -17 -11 -16 -12 2 -3 38 3
60 17 71 8 6 14 27 14 47 0 39 17 52 40 30 13 -13 13 -16 -3 -27z m-73 -246
c-1 -19 -2 -43 -3 -54 -1 -14 -4 -16 -14 -8 -10 8 -13 5 -15 -15 -3 -37 -9
-40 -33 -14 -16 16 -18 25 -10 35 7 9 8 22 3 37 -7 19 -3 29 27 59 33 32 36
33 42 15 3 -11 4 -36 3 -55z m-110 -92 c9 -13 14 -17 11 -10 -3 6 -1 12 4 12
13 0 14 -30 1 -50 -7 -12 -12 -12 -34 0 -14 7 -35 22 -47 33 -21 20 -21 21 -3
28 33 13 51 10 68 -13z m-2890 -90 c-5 -8 -1 -9 12 -4 12 5 16 4 9 -3 -11 -10
-30 -14 -55 -12 -12 1 -11 5 4 16 24 18 40 20 30 3z m2739 -48 c3 -25 6 -51 6
-59 1 -7 7 -11 16 -7 8 3 15 0 15 -7 0 -8 4 -7 10 3 5 8 12 12 15 8 10 -9 -24
-70 -36 -63 -5 4 -7 11 -4 16 4 5 1 9 -4 9 -14 0 -14 -17 -1 -25 18 -11 11
-24 -51 -91 -33 -37 -67 -80 -74 -95 -10 -18 -25 -29 -50 -33 -34 -7 -45 -29
-17 -32 7 -1 17 -2 22 -3 13 -1 -12 -52 -33 -70 -10 -8 -17 -9 -22 -1 -13 21
-35 9 -50 -27 -18 -42 -49 -79 -80 -95 -17 -9 -16 -6 5 17 25 28 25 28 2 16
-32 -17 -37 -9 -18 28 18 35 20 51 6 51 -5 0 -10 -12 -10 -26 0 -19 -17 -43
-65 -89 -42 -40 -65 -70 -65 -84 0 -17 -4 -21 -19 -16 -21 6 -37 -9 -46 -48
-9 -33 -49 -67 -80 -67 -12 0 -34 -12 -49 -26 -14 -15 -26 -22 -26 -16 0 19
-88 -38 -109 -71 -11 -18 -21 -28 -21 -24 0 5 -13 -1 -29 -13 -40 -28 -49 -8
-10 23 31 24 31 25 10 32 -15 5 -30 -1 -52 -19 -17 -14 -36 -26 -44 -26 -7 0
-15 -9 -18 -20 -4 -15 -14 -20 -42 -20 -20 0 -46 -5 -57 -11 -31 -16 -106 -18
-112 -2 -9 21 -24 15 -43 -17 -14 -25 -24 -30 -47 -28 -46 5 -41 24 9 39 29 9
44 18 42 28 -2 17 59 25 69 10 3 -5 19 2 35 15 24 20 34 23 59 16 39 -11 51
-20 45 -31 -4 -5 -1 -9 4 -9 6 0 11 7 11 15 0 8 10 20 23 27 l22 12 -25 7
c-14 4 -43 5 -65 3 -26 -3 -33 -1 -22 4 10 4 17 12 16 17 -2 6 17 20 42 32 26
12 49 29 52 37 4 9 11 16 17 16 6 0 8 -4 5 -10 -3 -5 -2 -10 4 -10 5 0 13 5
16 10 3 6 11 10 16 10 6 0 7 -5 4 -10 -7 -12 11 -12 40 -1 16 7 14 9 -15 15
l-35 8 30 9 c17 5 39 11 50 13 11 2 19 9 17 16 -2 9 5 10 22 6 18 -4 24 -3 21
6 -2 7 15 28 40 47 24 19 46 43 48 53 3 11 14 18 31 18 14 0 26 5 26 11 0 5 4
8 9 5 10 -7 51 57 51 80 0 8 5 14 11 14 5 0 7 -4 4 -10 -7 -11 18 -13 52 -4
15 4 27 21 38 55 18 53 33 69 45 49 5 -8 0 -21 -11 -33 -10 -11 -16 -23 -13
-26 3 -3 10 2 15 12 6 9 16 17 23 17 8 0 17 11 20 25 4 14 11 25 17 25 6 0 7
-5 3 -12 -4 -7 -3 -8 5 -4 6 4 9 11 6 16 -7 11 22 40 40 40 7 0 29 18 48 39
19 22 38 37 41 34 3 -3 3 16 0 43 l-5 49 29 -33 c16 -17 32 -29 35 -25 4 3 2
12 -4 20 -9 10 -7 13 10 13 19 0 21 4 15 22 -6 20 -5 21 10 9 14 -12 16 -11
16 3 0 9 6 16 13 15 29 -5 43 12 41 49 -2 47 3 56 23 37 22 -23 25 -14 12 43
-10 41 -10 54 1 67 16 20 17 19 23 -35z m77 15 c9 -11 9 -21 1 -42 l-11 -28 4
28 c2 15 2 27 0 27 -2 0 -10 -12 -18 -27 l-15 -28 -1 36 c0 49 16 63 40 34z
m-620 -490 c10 -13 9 -15 -8 -15 -15 0 -20 5 -16 15 4 8 7 15 9 15 1 0 8 -7
15 -15z m-595 -455 c3 -5 -1 -10 -9 -10 -9 0 -16 5 -16 10 0 6 4 10 9 10 6 0
13 -4 16 -10z m-195 -99 c0 -5 -7 -12 -16 -15 -24 -9 -28 -7 -14 9 14 17 30
20 30 6z m-120 -25 c0 -2 -9 -6 -20 -9 -11 -3 -18 -1 -14 4 5 9 34 13 34 5z
m-76 -26 c-22 -9 -29 -6 -20 9 4 6 14 7 23 4 15 -6 14 -7 -3 -13z m-759 -20
c3 -6 -1 -7 -9 -4 -18 7 -21 14 -7 14 6 0 13 -4 16 -10z"/>
<path d="M3555 4370 c-3 -5 -1 -10 4 -10 6 0 11 5 11 10 0 6 -2 10 -4 10 -3 0
-8 -4 -11 -10z"/>
<path d="M3520 4339 c0 -5 5 -7 10 -4 6 3 10 8 10 11 0 2 -4 4 -10 4 -5 0 -10
-5 -10 -11z"/>
<path d="M2716 4295 c-3 -8 -1 -15 4 -15 6 0 10 7 10 15 0 8 -2 15 -4 15 -2 0
-6 -7 -10 -15z"/>
<path d="M3562 4224 c-7 -8 -8 -14 -3 -14 10 0 25 19 20 25 -2 1 -10 -3 -17
-11z"/>
<path d="M3440 4150 c0 -5 5 -10 11 -10 5 0 7 5 4 10 -3 6 -8 10 -11 10 -2 0
-4 -4 -4 -10z"/>
<path d="M3521 4134 c0 -11 3 -14 6 -6 3 7 2 16 -1 19 -3 4 -6 -2 -5 -13z"/>
<path d="M3470 4129 c0 -5 5 -7 10 -4 6 3 10 8 10 11 0 2 -4 4 -10 4 -5 0 -10
-5 -10 -11z"/>
<path d="M3450 4083 c0 -15 2 -16 10 -3 8 13 10 12 10 -2 0 -10 5 -18 10 -18
16 0 11 27 -6 34 -23 9 -24 8 -24 -11z"/>
<path d="M3433 4042 c-19 -12 10 -44 33 -35 16 6 17 4 6 -9 -8 -10 -9 -23 -4
-39 8 -22 9 -21 21 11 12 37 4 50 -33 50 -12 0 -16 5 -12 15 6 17 5 18 -11 7z"/>
<path d="M3415 3930 c-3 -5 -1 -10 4 -10 6 0 11 5 11 10 0 6 -2 10 -4 10 -3 0
-8 -4 -11 -10z"/>
<path d="M4062 3850 c0 -19 2 -27 5 -17 2 9 2 25 0 35 -3 9 -5 1 -5 -18z"/>
<path d="M2390 3821 c0 -6 5 -13 10 -16 6 -3 10 1 10 9 0 9 -4 16 -10 16 -5 0
-10 -4 -10 -9z"/>
<path d="M3996 3767 c3 -10 9 -15 12 -12 3 3 0 11 -7 18 -10 9 -11 8 -5 -6z"/>
<path d="M2217 3679 c3 -10 9 -16 14 -13 13 8 11 21 -5 27 -10 4 -12 0 -9 -14z"/>
<path d="M4006 3614 c-5 -14 -4 -15 9 -4 17 14 19 20 6 20 -5 0 -12 -7 -15
-16z"/>
<path d="M3297 3607 c-3 -8 -1 -20 4 -28 6 -10 9 -7 9 14 0 29 -5 35 -13 14z"/>
<path d="M3885 3540 c-3 -5 -1 -10 4 -10 6 0 11 5 11 10 0 6 -2 10 -4 10 -3 0
-8 -4 -11 -10z"/>
<path d="M3965 3529 c-4 -6 -5 -12 -2 -15 2 -3 7 2 10 11 7 17 1 20 -8 4z"/>
<path d="M3915 3519 c-4 -6 -5 -12 -2 -15 2 -3 7 2 10 11 7 17 1 20 -8 4z"/>
<path d="M3896 3482 c-3 -5 4 -13 15 -20 15 -10 19 -10 19 2 0 15 -27 29 -34
18z"/>
<path d="M3867 3420 c-3 -11 -1 -18 4 -14 5 3 9 0 9 -6 0 -7 8 -9 23 -5 17 6
19 4 11 -5 -12 -12 -7 -50 6 -50 9 0 20 52 13 62 -2 5 -16 8 -30 8 -18 0 -24
4 -19 15 3 8 2 15 -3 15 -5 0 -11 -9 -14 -20z"/>
<path d="M3860 3319 c0 -5 5 -7 10 -4 6 3 10 8 10 11 0 2 -4 4 -10 4 -5 0 -10
-5 -10 -11z"/>
<path d="M4557 3241 c-4 -17 -3 -21 5 -13 5 5 8 16 6 23 -3 8 -7 3 -11 -10z"/>
<path d="M1526 3145 c-4 -11 1 -15 21 -15 14 0 24 1 22 3 -2 1 -11 8 -20 15
-14 10 -18 10 -23 -3z"/>
<path d="M2975 3131 c-3 -5 -1 -12 5 -16 5 -3 10 1 10 9 0 18 -6 21 -15 7z"/>
<path d="M4465 3110 c-3 -5 -1 -10 4 -10 6 0 11 5 11 10 0 6 -2 10 -4 10 -3 0
-8 -4 -11 -10z"/>
<path d="M3744 2999 c-3 -6 -2 -15 3 -20 5 -5 9 -1 10 11 2 22 -2 25 -13 9z"/>
<path d="M2800 2991 c0 -5 5 -13 10 -16 6 -3 10 -2 10 4 0 5 -4 13 -10 16 -5
3 -10 2 -10 -4z"/>
<path d="M4495 2980 c-3 -6 1 -7 9 -4 18 7 21 14 7 14 -6 0 -13 -4 -16 -10z"/>
<path d="M4380 2909 c0 -5 5 -7 10 -4 6 3 10 8 10 11 0 2 -4 4 -10 4 -5 0 -10
-5 -10 -11z"/>
<path d="M4411 2884 c0 -11 3 -14 6 -6 3 7 2 16 -1 19 -3 4 -6 -2 -5 -13z"/>
<path d="M4396 2853 c-11 -12 -6 -19 14 -20 11 -1 20 2 20 7 0 10 -26 20 -34
13z"/>
<path d="M4375 2810 c-11 -17 5 -49 21 -43 17 6 19 24 2 21 -7 -2 -12 5 -12
15 2 19 -2 22 -11 7z"/>
<path d="M4411 2766 c-7 -8 -8 -22 -3 -36 9 -25 16 -20 26 23 7 29 -4 36 -23
13z"/>
<path d="M4365 2709 c-4 -6 -5 -12 -2 -15 2 -3 7 2 10 11 7 17 1 20 -8 4z"/>
<path d="M3420 2514 c0 -8 5 -12 10 -9 6 3 10 10 10 16 0 5 -4 9 -10 9 -5 0
-10 -7 -10 -16z"/>
<path d="M2110 2450 c0 -5 12 -10 28 -9 24 0 25 1 7 9 -27 12 -35 12 -35 0z"/>
<path d="M3240 2393 c0 -4 5 -15 10 -23 8 -13 10 -13 10 2 0 9 -4 20 -10 23
-5 3 -10 3 -10 -2z"/>
<path d="M4237 2365 c-4 -8 -1 -17 5 -21 7 -4 8 -3 4 4 -4 7 -2 12 3 12 6 0
11 5 11 10 0 15 -17 12 -23 -5z"/>
<path d="M4605 1990 c3 -5 8 -10 11 -10 2 0 4 5 4 10 0 6 -5 10 -11 10 -5 0
-7 -4 -4 -10z"/>
<path d="M250 1980 l-25 -8 28 -1 c15 -1 27 4 27 9 0 6 -1 10 -2 9 -2 -1 -14
-5 -28 -9z"/>
<path d="M3927 1903 c-4 -3 -7 -11 -7 -17 0 -6 5 -5 12 2 6 6 9 14 7 17 -3 3
-9 2 -12 -2z"/>
<path d="M3054 1218 c-10 -15 1 -19 26 -10 l24 9 -22 5 c-12 4 -25 2 -28 -4z"/>
<path d="M4260 1290 c0 -5 5 -10 10 -10 6 0 10 5 10 10 0 6 -4 10 -10 10 -5 0
-10 -4 -10 -10z"/>
<path d="M4090 1151 c0 -25 6 -27 13 -6 4 8 2 17 -3 20 -6 4 -10 -3 -10 -14z"/>
<path d="M4030 1020 c-9 -16 -8 -18 5 -14 8 4 15 12 15 20 0 20 -7 17 -20 -6z"/>
<path d="M2120 4790 c-9 -6 -10 -10 -3 -10 6 0 15 5 18 10 8 12 4 12 -15 0z"/>
<path d="M1932 4759 c-40 -16 -82 -31 -92 -32 -30 -5 -36 -17 -9 -17 13 0 44
10 69 21 25 11 59 22 75 23 19 2 31 9 33 19 2 9 2 17 0 16 -2 0 -36 -13 -76
-30z"/>
<path d="M1614 4744 c-18 -14 -18 -15 4 -4 12 6 22 13 22 15 0 8 -5 6 -26 -11z"/>
<path d="M1451 4696 c-18 -22 20 -26 43 -4 19 18 19 18 -6 18 -14 0 -31 -6
-37 -14z"/>
<path d="M1560 4700 c-13 -8 -12 -10 3 -10 11 0 15 -5 11 -11 -5 -8 -1 -8 14
0 12 6 24 16 27 21 8 13 -35 13 -55 0z"/>
<path d="M1810 4680 c-12 -8 -10 -10 8 -10 13 0 20 4 17 10 -7 12 -6 12 -25 0z"/>
<path d="M1480 4660 c-8 -5 -12 -12 -9 -15 4 -3 12 1 19 10 14 17 11 19 -10 5z"/>
<path d="M1475 4609 c-4 -6 -5 -12 -2 -15 2 -3 7 2 10 11 7 17 1 20 -8 4z"/>
<path d="M1221 4553 c-18 -4 -21 -7 -11 -13 11 -7 11 -11 1 -24 -8 -9 -10 -16
-5 -16 5 0 17 14 26 30 9 17 16 29 15 29 -1 -1 -13 -4 -26 -6z"/>
<path d="M1297 4503 c-15 -14 -6 -31 12 -26 12 3 17 11 14 19 -6 15 -16 18
-26 7z"/>
<path d="M1170 4455 c-7 -8 -8 -15 -2 -15 5 0 15 7 22 15 7 8 8 15 2 15 -5 0
-15 -7 -22 -15z"/>
<path d="M1075 4440 c-3 -5 1 -10 9 -10 8 0 18 5 21 10 3 6 -1 10 -9 10 -8 0
-18 -4 -21 -10z"/>
<path d="M1270 4429 c-14 -6 -37 -11 -53 -11 -33 -1 -30 -6 11 -17 23 -7 32
-6 36 5 3 8 15 14 26 14 11 0 20 5 20 10 0 12 -7 12 -40 -1z"/>
<path d="M849 4333 c-12 -19 -19 -37 -15 -40 3 -4 6 -2 6 4 0 5 16 18 35 29
40 21 43 29 15 37 -14 4 -25 -4 -41 -30z"/>
<path d="M969 4343 c-13 -16 -12 -17 4 -4 9 7 17 15 17 17 0 8 -8 3 -21 -13z"/>
<path d="M935 4301 c-3 -6 -14 -11 -23 -12 -9 0 -28 -14 -42 -32 -26 -33 -19
-30 40 12 19 14 37 26 39 28 2 2 2 6 -1 9 -3 3 -9 1 -13 -5z"/>
<path d="M996 4261 c-16 -17 -27 -33 -24 -36 9 -9 61 42 56 55 -2 6 -16 -3
-32 -19z"/>
<path d="M794 4192 c-11 -10 -26 -17 -34 -15 -12 4 -12 2 -2 -5 10 -7 8 -15
-9 -38 -16 -21 -12 -19 15 8 l36 38 -6 -34 c-7 -46 20 -57 41 -16 21 40 20 56
-2 39 -11 -10 -14 -10 -9 -1 4 7 2 12 -5 12 -8 0 -8 4 1 15 18 21 -2 19 -26
-3z"/>
<path d="M673 4074 c-18 -8 -33 -22 -34 -32 -1 -9 -2 -36 -3 -58 l-1 -42 37
21 c20 12 40 19 43 15 10 -9 -16 -45 -40 -56 -17 -8 -21 -20 -23 -66 -1 -36 2
-56 9 -56 6 0 13 9 16 21 4 13 11 18 20 14 11 -4 13 -1 9 11 -8 20 19 70 44
84 44 23 5 68 -64 74 -20 2 -39 6 -42 8 -2 3 14 22 36 42 43 39 42 42 -7 20z"/>
<path d="M602 4005 c0 -16 2 -22 5 -12 2 9 2 23 0 30 -3 6 -5 -1 -5 -18z"/>
<path d="M816 4014 c-9 -23 -2 -28 13 -10 7 8 8 17 3 20 -6 3 -13 -1 -16 -10z"/>
<path d="M527 3913 c-4 -3 -7 -11 -7 -17 0 -6 5 -5 12 2 6 6 9 14 7 17 -3 3
-9 2 -12 -2z"/>
<path d="M520 3764 c-13 -33 -13 -34 4 -28 7 3 18 16 24 30 10 20 9 24 -3 24
-9 0 -20 -12 -25 -26z"/>
<path d="M386 3714 c-5 -14 -4 -15 9 -4 17 14 19 20 6 20 -5 0 -12 -7 -15 -16z"/>
<path d="M566 3705 c4 -8 7 -15 9 -15 2 0 5 7 9 15 3 9 0 15 -9 15 -9 0 -12
-6 -9 -15z"/>
<path d="M442 3515 c-17 -37 -14 -45 4 -12 9 16 14 31 11 33 -2 2 -9 -7 -15
-21z"/>
<path d="M249 3453 c-6 -46 1 -71 12 -45 6 15 5 30 -1 40 -6 11 -10 12 -11 5z"/>
<path d="M336 3051 c-4 -7 -5 -15 -2 -18 9 -9 19 4 14 18 -4 11 -6 11 -12 0z"/>
<path d="M321 2890 c0 -14 4 -32 9 -40 8 -12 10 -12 9 5 0 11 -4 29 -9 40 -8
18 -9 18 -9 -5z"/>
<path d="M222 2868 c1 -21 5 -35 10 -32 11 7 10 35 -2 54 -7 11 -9 5 -8 -22z"/>
</g>
</svg>
